<?xml version="1.0" ?><svg width="512px" height="512px" viewBox="0 0 512 512" id="Layer_1" style="enable-background:new 0 0 512 512;" version="1.1" xml:space="preserve" xmlns="http://www.w3.org/2000/svg" xmlns:xlink="http://www.w3.org/1999/xlink"><style type="text/css">
	.st0{fill:#2B79C2;}
	.st1{fill:#3B4652;}
</style><g><path class="st1" d="M188.5,93.2c-29.8,0-58,12.9-77.5,35.4c-2.5,2.9-2.2,7.3,0.7,9.9c2.9,2.5,7.3,2.2,9.9-0.7   c16.9-19.4,41.3-30.6,67-30.6s50.1,11.1,67,30.6c1.4,1.6,3.3,2.4,5.3,2.4c1.6,0,3.3-0.6,4.6-1.7c2.9-2.5,3.2-7,0.7-9.9   C246.5,106.1,218.3,93.2,188.5,93.2z"/><path class="st1" d="M81.5,112.3c2.9,2.5,7.3,2.2,9.9-0.7c24.5-28.2,59.9-44.4,97.1-44.4s72.6,16.2,97.1,44.4   c1.4,1.6,3.3,2.4,5.3,2.4c1.6,0,3.3-0.6,4.6-1.7c2.9-2.5,3.2-7,0.7-9.9C269,71.1,229.8,53.2,188.5,53.2S108,71.1,80.8,102.4   C78.3,105.3,78.6,109.7,81.5,112.3z"/><path class="st1" d="M354.5,444.8h-29v-35h-30v35h-196v-35h-30v35h-47c-3.9,0-7,3.1-7,7s3.1,7,7,7h332c3.9,0,7-3.1,7-7   S358.4,444.8,354.5,444.8z"/><path class="st0" d="M489.5,444.8H449v-35h-14v35h-40.5c-3.9,0-7,3.1-7,7s3.1,7,7,7h47.4c0,0,0.1,0,0.1,0s0.1,0,0.1,0h47.4   c3.9,0,7-3.1,7-7S493.4,444.8,489.5,444.8z"/><path class="st1" d="M402.9,395.8h78.2c4.6,0,8.4-3.8,8.4-8.4V174.2c0-4.6-3.8-8.4-8.4-8.4h-78.2c-4.6,0-8.4,3.8-8.4,8.4v213.2   C394.5,392,398.3,395.8,402.9,395.8z M420.6,209.3c1-10.1,9.1-18.2,19.2-19.2c13.6-1.3,24.9,10,23.6,23.6   c-1,10.1-9.1,18.2-19.2,19.2C430.6,234.3,419.3,222.9,420.6,209.3z M420.6,278.6c1-10.1,9.1-18.2,19.2-19.2   c13.6-1.3,24.9,10,23.6,23.6c-1,10.1-9.1,18.2-19.2,19.2C430.6,303.5,419.3,292.2,420.6,278.6z M420.6,347.9   c1-10.1,9.1-18.2,19.2-19.2c13.6-1.3,24.9,10,23.6,23.6c-1,10.1-9.1,18.2-19.2,19.2C430.6,372.8,419.3,361.5,420.6,347.9z"/><path class="st0" d="M354.5,179.8c0-7.7-6.3-14-14-14h-304c-7.7,0-14,6.3-14,14v163.3h332V179.8z"/><path class="st1" d="M36.5,395.8h304c7.7,0,14-6.3,14-14v-24.7h-332v24.7C22.5,389.5,28.8,395.8,36.5,395.8z"/></g></svg>