<?xml version="1.0" encoding="iso-8859-1"?>
<!-- Generator: Adobe Illustrator 19.0.0, SVG Export Plug-In . SVG Version: 6.00 Build 0)  -->
<svg version="1.1" id="Layer_1" xmlns="http://www.w3.org/2000/svg" xmlns:xlink="http://www.w3.org/1999/xlink" x="0px" y="0px"
	 viewBox="0 0 505 505" style="enable-background:new 0 0 505 505;" xml:space="preserve">
<circle style="fill:#FD8469;" cx="252.5" cy="252.5" r="252.5"/>
<path style="fill:#324A5E;" d="M322.6,148h-39.4l6.9-90.1c0.3-4.1,3.7-7.2,7.8-7.2H308c4.1,0,7.5,3.2,7.8,7.2L322.6,148z"/>
<path style="fill:#84DBFF;" d="M279.6,114.1h-51.3c-13.6,0-26.7,5.3-36.2,15.1c-15.2,15.5-24.5,36.8-24.5,60.2v232.2
	c0,18.1,14.7,32.8,32.8,32.8h107.1c18.1,0,32.8-14.7,32.8-32.8V189.4c0-23.4-9.3-44.7-24.5-60.2
	C306.3,119.5,293.2,114.1,279.6,114.1z"/>
<path style="fill:#54C0EB;" d="M291.1,269.3c8.7,0,16.6-6.8,19.5-17.1c4.3-15,6.7-32,6.7-50c0-15.4-1.8-30.1-5-43.5
	c-2.6-11-10.7-18.4-19.9-18.4h-77.1c-9.1,0-17.2,7.5-19.9,18.4c-3.2,13.4-5,28.1-5,43.5c0,18,2.4,35,6.7,50
	c3,10.3,10.8,17.1,19.5,17.1H291.1z"/>
<path style="fill:#324A5E;" d="M296.6,300.4c10,0,19-6.7,22.4-16.8c4.9-14.8,7.7-31.4,7.7-49.1c0-15.1-2.1-29.6-5.8-42.7
	c-3-10.7-12.3-18.1-22.8-18.1h-88.4c-10.5,0-19.7,7.3-22.8,18.1c-3.7,13.1-5.8,27.5-5.8,42.7c0,17.7,2.8,34.3,7.7,49.1
	c3.4,10.1,12.4,16.8,22.4,16.8H296.6z"/>
<rect x="201.8" y="196.2" style="fill:#FFFFFF;" width="104.2" height="81.7"/>
<g>
	<ellipse style="fill:#324A5E;" cx="206.8" cy="334.4" rx="16.3" ry="11.4"/>
	<ellipse style="fill:#324A5E;" cx="253.9" cy="334.4" rx="16.3" ry="11.4"/>
	<ellipse style="fill:#324A5E;" cx="301" cy="334.4" rx="16.3" ry="11.4"/>
	<ellipse style="fill:#324A5E;" cx="206.8" cy="371.8" rx="16.3" ry="11.4"/>
	<ellipse style="fill:#324A5E;" cx="253.9" cy="371.8" rx="16.3" ry="11.4"/>
	<ellipse style="fill:#324A5E;" cx="301" cy="371.8" rx="16.3" ry="11.4"/>
	<ellipse style="fill:#324A5E;" cx="206.8" cy="409.3" rx="16.3" ry="11.4"/>
	<ellipse style="fill:#324A5E;" cx="253.9" cy="409.3" rx="16.3" ry="11.4"/>
	<ellipse style="fill:#324A5E;" cx="301" cy="409.3" rx="16.3" ry="11.4"/>
</g>
<g>
	<circle style="fill:#2B3B4E;" cx="279.7" cy="157.1" r="5.5"/>
	<circle style="fill:#2B3B4E;" cx="253.9" cy="157.1" r="5.5"/>
	<circle style="fill:#2B3B4E;" cx="228.2" cy="157.1" r="5.5"/>
</g>
<g>
</g>
<g>
</g>
<g>
</g>
<g>
</g>
<g>
</g>
<g>
</g>
<g>
</g>
<g>
</g>
<g>
</g>
<g>
</g>
<g>
</g>
<g>
</g>
<g>
</g>
<g>
</g>
<g>
</g>
</svg>
