<?xml version="1.0" encoding="iso-8859-1"?>
<!-- Generator: Adobe Illustrator 19.0.0, SVG Export Plug-In . SVG Version: 6.00 Build 0)  -->
<svg version="1.1" id="Layer_1" xmlns="http://www.w3.org/2000/svg" xmlns:xlink="http://www.w3.org/1999/xlink" x="0px" y="0px"
	 viewBox="0 0 512 512" style="enable-background:new 0 0 512 512;" xml:space="preserve">
<path style="fill:#FFDB2D;" d="M356.019,117.772c-10.953,0-19.611,9.83-17.631,21.15c1.504,8.597,9.291,14.679,18.018,14.679h15.139
	c0.432,0,0.853,0.051,1.26,0.139c0.733-5.718,1.129-11.541,1.129-17.457c0-5.889-0.438-11.594-1.172-17.277
	c-0.466-0.411-0.812-0.717-1.276-1.128L356.019,117.772z"/>
<path style="fill:#B9F7F9;" d="M354.828,512H117.879c-9.864,0-17.86-7.997-17.86-17.86V375.665
	c0-38.437,16.354-75.284,44.871-101.093c7.194-6.512,18.272-6.087,24.949,0.956l66.421,70.088l66.515-70.173
	c6.631-6.997,17.621-7.468,24.828-1.063c27.811,24.72,45.086,61.328,45.086,101.284V494.14C372.688,504.003,364.692,512,354.828,512
	z"/>
<path style="fill:#00D8E0;" d="M327.405,274.382c-7.238-6.406-18.276-5.934-24.937,1.063l-66.71,70.073V512h119.07
	c9.864,0,17.86-7.997,17.86-17.86V375.665C372.688,335.709,355.338,299.101,327.405,274.382z"/>
<path style="fill:#FF9900;" d="M223.294,383.867l-79.384-83.766c-6.898-7.279-6.444-18.808,0.976-25.526
	c51.882-46.973,130.939-46.981,182.824-0.094c7.445,6.729,7.879,18.269,0.987,25.538l-79.479,83.849
	C242.177,391.299,230.331,391.292,223.294,383.867z"/>
<path style="fill:#FF4F19;" d="M328.307,274.481c-25.929-23.431-58.642-35.149-91.359-35.149v150.103
	c4.689-0.025,9.37-1.877,12.867-5.566l79.479-83.849C336.186,292.75,335.753,281.208,328.307,274.481z"/>
<path style="fill:#FFDB2D;" d="M236.353,272.67c-75.176,0-136.335-61.16-136.335-136.335S161.178,0,236.353,0
	s136.335,61.16,136.335,136.335S311.529,272.67,236.353,272.67z"/>
<path style="fill:#FF9900;" d="M236.949,0v272.67c75.176,0,136.335-61.159,136.335-136.335S312.125,0,236.949,0z"/>
<path style="fill:#808285;" d="M371.438,117.908c0.818,6.029,1.25,12.178,1.25,18.427c0,5.898-0.394,11.703-1.125,17.404
	c2.68,0.579,4.697,2.964,4.697,5.814v21.433c0,3.283-2.671,5.953-5.953,5.953h-98.828c-9.864,0-17.86,7.997-17.86,17.86
	s7.997,17.86,17.86,17.86h98.828c22.979,0,41.674-18.695,41.674-41.674v-21.433C411.981,136.954,393.895,118.511,371.438,117.908z"
	/>
<g>
</g>
<g>
</g>
<g>
</g>
<g>
</g>
<g>
</g>
<g>
</g>
<g>
</g>
<g>
</g>
<g>
</g>
<g>
</g>
<g>
</g>
<g>
</g>
<g>
</g>
<g>
</g>
<g>
</g>
</svg>
