<?xml version="1.0" ?><svg width="512px" height="512px" viewBox="0 0 512 512" id="Layer_1" style="enable-background:new 0 0 512 512;" version="1.1" xml:space="preserve" xmlns="http://www.w3.org/2000/svg" xmlns:xlink="http://www.w3.org/1999/xlink"><style type="text/css">
	.st0{fill:#2B79C2;}
	.st1{fill:#3B4652;}
</style><g><path class="st1" d="M18.1,189.9v87.5h95V140.2H67.8C40.3,140.2,18.1,162.5,18.1,189.9z M83.4,213.4c0,9.9-8,17.9-17.9,17.9   c-9.9,0-17.9-8-17.9-17.9s8-17.9,17.9-17.9C75.4,195.5,83.4,203.5,83.4,213.4z"/><path class="st0" d="M18.1,402.8c0,14.3,11.6,25.9,25.9,25.9h69.1V291.5h-95V402.8z"/><path class="st0" d="M438.6,394.4c0,19-1.6,34.4-20.6,34.4h44.9c17.1,0,31-13.9,31-31V269.1h-55.4V394.4z"/><circle class="st0" cx="260.8" cy="283.1" r="63.6"/><path class="st0" d="M348.6,92.1c-5.7-5.7-13.3-8.8-21.3-8.8H194.4c-8,0-15.7,3.2-21.3,8.8L139,126.2h243.7L348.6,92.1z"/><path class="st1" d="M473.3,140.2H127.1v137.3h18.9c2.9-60.9,53.3-109.4,114.9-109.4c63.5,0,115,51.5,115,115s-51.5,115-115,115   c-60.7,0-110.4-47.1-114.7-106.7h-19v137.3h277.1v-14c11.2,0,20.4-9.1,20.4-20.4V255.1h69.4v-94.4   C493.9,149.4,484.7,140.2,473.3,140.2z M466.8,208.1h-40v-40h40V208.1z"/></g></svg>