<?xml version="1.0" encoding="utf-8"?>
<!-- Generator: Adobe Illustrator 21.1.0, SVG Export Plug-In . SVG Version: 6.00 Build 0)  -->
<svg version="1.1" id="svg208" xmlns="http://www.w3.org/2000/svg" xmlns:xlink="http://www.w3.org/1999/xlink" x="0px" y="0px"
	 viewBox="0 0 87 86.8" style="enable-background:new 0 0 87 86.8;" xml:space="preserve">
<style type="text/css">
	.st0{clip-path:url(#SVGID_2_);}
	.st1{fill:#0E50A0;}
	.st2{fill:#A8CDED;}
	.st3{fill:#C5C9E4;}
	.st4{fill:#56A1D8;}
	.st5{fill:#5870B2;}
	.st6{fill:#21A0DB;}
</style>
<title>Peruri_logo</title>
<g id="layer1">
	<g id="g28">
		<g>
			<defs>
				<rect id="SVGID_1_" x="-0.1" y="0" width="80.3" height="86.8"/>
			</defs>
			<clipPath id="SVGID_2_">
				<use xlink:href="#SVGID_1_"  style="overflow:visible;"/>
			</clipPath>
			<g class="st0">
				<g id="g30">
					<g id="g36">
						<path id="path38" class="st1" d="M11.6,34c-0.5-0.3-1.1-0.5-1.7-0.8c-0.3-0.1-0.6-0.4-0.7-0.7c-1.6-0.6-3.2-1.1-4.8-1.7
							C4.1,30.7,4,30.7,3.9,31c-0.3,0.8-0.6,1.7-0.9,2.5c-0.1,0.3-0.1,0.5,0.3,0.6c2.4,0.8,4.7,1.6,7.1,2.4c0.2,0.1,0.4,0,0.5-0.1
							c0,0,0,0,0-0.1c0.4-0.6,0.8-1.2,1.1-1.9C12.1,34.1,11.8,34.1,11.6,34 M19,20l2.1-1.4c-0.6-1.1-1.2-2.1-1.8-3.2
							c-1.5-2.8-3.1-5.6-4.6-8.4c-0.2-0.4-0.4-0.5-0.8-0.2c-0.7,0.5-1.5,1-2.2,1.5c-0.3,0.2-0.4,0.3-0.2,0.7
							C14,12.7,16.5,16.3,19,20 M15,30.1c-1.7-1.2-3.4-2.5-5-3.6c-0.3-0.3-0.4-0.4-0.1-0.8c0.5-0.6,1-1.3,1.4-2
							c-3-1.9-5.9-3.7-8.8-5.7c-0.3-0.2-0.4-0.1-0.6,0.2c-0.6,0.9-1.1,1.8-1.8,2.7c-0.3,0.5-0.3,0.6,0.2,0.9c4.6,3,9.1,6,13.6,9
							c0.6,0.4,1,0.5,1.5-0.1c-0.2-0.2-0.4-0.4-0.6-0.5 M25.9,9.6c0.1,0.5,0.3,0.6,0.8,0.4c1.4-0.4,2.9-0.7,4.3-1
							c0.3-0.1,0.5,0,0.5,0.3c0.6,3.2,1.3,6.4,1.9,9.6c0.1-0.7,0.1-1.5,0.1-2.3c-0.2-0.7,0-1.4-0.1-2c-0.2-1.4-0.1-2.8-0.2-4.2
							c0-0.4,0-0.7,0-1.1s0.1-0.8,0.6-0.7c1.6-0.2,3.3-0.2,4.9-0.1c0-2.7-0.1-5.4-0.1-8.1c0-0.4-0.2-0.4-0.5-0.4
							c-1.1,0-2.3,0.1-3.4,0.1c-0.4,0-0.5,0.1-0.5,0.5c0.1,1.6,0.1,3.3,0.1,4.9c0,0.3,0,0.6,0,0.9c-0.4-1.9-0.7-3.7-0.9-5.6
							c-0.1-0.5-0.2-0.7-0.8-0.6c-2.8,0.4-5.5,1-8.2,1.7c-0.4,0.1-0.4,0.3-0.3,0.7C24.7,5,25.3,7.3,25.9,9.6 M40,69.1
							c-0.2-0.5,0.2-1.1,0.1-1.6c0-0.4-0.1-0.7-0.2-1.1c-0.1-0.2-0.1-0.5-0.4-0.4c-1,0.4-2.1,0.7-3.2,1s-2.3,0.4-3.4,0.7
							c-0.2,0.2,0,0.4-0.1,0.6c-0.3,3.3-0.6,6.6-0.9,9.8c0,0.4,0,0.5,0.4,0.5c0.7,0,1.5,0.2,2.2,0.2s0.7,0.2,0.7,0.8
							c0,2.2,0,4.5,0,6.7c0,0.4,0.1,0.6,0.5,0.6c1,0,2.1,0,3.1,0c0.5,0,0.7-0.1,0.7-0.7c0-2.3,0-4.6,0-6.9c0-0.3,0-0.6,0.4-0.6
							c0.7,0.1,0.7-0.3,0.6-0.8C40.4,74.9,40.2,72,40,69.1 M55.8,66.1c-0.3,0.1-0.6,0.2-0.8,0.5c-0.3,0.3-0.5,0.3-0.8,0
							c-1.3-1.5-2.6-3-3.9-4.5c-0.4-0.5-0.8-0.6-1.2-0.1c0.1,0.1,0.1,0.3,0.2,0.4c2,3.5,4,7,5.9,10.5c0.2,0.4,0.2,0.6-0.2,0.8
							c-0.7,0.3-1.4,0.7-2,1.2c-0.5,0.3-0.6,0.2-0.9-0.3c-1.7-3-3.3-6-5-8.9c-0.1-0.2-0.2-0.5-0.4-0.6c-0.3,0.2-0.1,0.4,0,0.6
							c0.5,1.5,1.1,3,1.7,4.4c0.3,0.8,0.3,0.8-0.5,1.1S46.5,71.5,46,72c1.5,4,3.1,8.1,4.6,12.1c0.2,0.5,0.4,0.6,0.9,0.4
							c1-0.4,1.9-0.8,2.9-1.1c0.4-0.1,0.5-0.3,0.3-0.7c-0.7-1.7-1.3-3.4-1.9-5.1c-0.1-0.1,0-0.3-0.1-0.4c0,0.1,0.1,0.2,0.2,0.2
							c0.8,1.6,1.7,3.2,2.5,4.8c0.2,0.4,0.4,0.5,0.8,0.3c2.5-1.3,4.9-2.8,7.2-4.3c0.4-0.3,0.5-0.5,0.2-0.9
							C61,73.6,58.4,69.8,55.8,66.1 M30.4,34.1c-1.1,0-2.1,0.2-3.1,0.5c-6.5,1.6-10.4,8.2-8.9,14.7c1.9,6.8,8.9,10.8,15.7,9
							c0.3-0.1,0.7-0.2,1-0.3c5.9-1.9,9.4-8,8.1-14.1C42,38.2,36.7,34.1,30.4,34.1 M80.4,40l-17.7,2.3c-0.1,0.1-0.2,0.1-0.3,0.1
							c0.5,0.1,1.1,0,1.7,0.1c2.4,0,4.9,0.1,7.3,0.1c0.6,0,0.7,0.2,0.6,0.7c-0.1,0.7-0.1,1.4-0.1,2.1c0,0.6-0.1,0.7-0.7,0.7
							C68.1,46.1,65,46,62,46c-0.2,0-0.5,0-0.7,0.1l4.8,0.8c1.7,0.3,3.4,0.6,5.1,0.9c0.4,0.1,0.6,0.2,0.4,0.6s0,0.6,0.4,0.7
							c2.5,0.5,5.1,1.2,7.6,1.7c0.5,0.1,0.6,0.3,0.5,0.8c-0.3,1.2-0.6,2.4-0.8,3.6c-0.1,0.4-0.2,0.5-0.6,0.4
							c-1.6-0.4-3.3-0.8-4.9-1.2c-0.3-0.1-0.5-0.1-0.8,0l1.6,0.6c1.3,0.5,2.6,1,3.9,1.4c0.4,0.1,0.4,0.3,0.3,0.7
							c-2.1,6.1-5.4,11.7-9.8,16.4c-0.3,0.3-0.4,0.3-0.7,0c-3.5-3.1-7-6.2-10.5-9.3c0-0.5,0.4-0.8,0.7-1.1s0.3-0.6,0-0.8
							c-1.5-1.2-2.7-2.7-4.1-3.9c-0.8-0.7-0.8-0.8-0.2-1.7c0.2-0.3,0.5-0.7,0.7-1.1c0.1-0.3,0.5-0.5,0.8-0.4c0.1,0,0.1,0,0.2,0.1
							c0.9,0.5,1.8,0.9,2.7,1.4s1.5,0.9,2.4,1.4c0.2,0.2,0.5,0.1,0.7-0.1c0-0.1,0.1-0.1,0.1-0.2c0.2-0.3,0.3-0.6,0.5-1
							c0.2-0.5,0.6-0.6,1.1-0.4l4.4,1.8c0.7,0.3,0.8,0.3,1-0.4s0.5-1.2,0.7-1.7s0.1-0.6-0.3-0.8l-4.4-1.8C63.7,53,63.6,53,64,52
							c0-0.1,0.1-0.3,0.1-0.4c0.2-0.4,0-0.6-0.4-0.8c-1.7-0.6-3.3-1-5-1.6L58,49.1c-0.7-0.3-0.8-0.3-0.7-1.1c0.2-1,0.3-2.1,0.3-3.2
							c0-1.5-0.1-2.9-0.3-4.4c0-0.3-0.1-0.6,0.1-0.8c4.2-1.2,8.5-2.4,12.7-3.6c0.6-0.2,0.8-0.3,0.5-1c-0.3-0.6-0.4-1.3-0.6-2
							c-0.1-0.6-0.4-0.6-0.9-0.5c-2.9,0.8-5.8,1.7-8.8,2.5c-0.2,0.1-0.4,0.1-0.7,0.1c0-0.3,0.3-0.4,0.5-0.5c1.5-0.7,3.1-1.4,4.6-2.1
							c0.5-0.2,0.6-0.4,0.3-0.9c-0.8-1.9-1.8-3.8-3-5.6c-0.3-0.3-0.2-0.7,0-0.9c0.1-0.1,0.1-0.1,0.2-0.1c0.7-0.5,1.4-1.1,2.1-1.6
							c0.4-0.3,0.5-0.5,0.2-0.9c-0.9-1.1-0.6-1.2-1.8-0.3c-4.6,3.5-9.2,7-13.8,10.5c-0.3,0.2-0.5,0.5-0.8,0.5l-1.9-2
							c-0.1-0.3,0.1-0.5,0.3-0.7c2.5-4.1,5-8.1,7.4-12.2c0.3-0.5,0.3-0.7-0.2-0.9s-0.9-0.5-1.4-0.8c-0.9-0.5-0.8-0.5-1.4,0.4
							c-0.7,1-1.3,2.1-2,3.2c-0.5,0.7-0.5,0.7-1.2,0.4s-1.6-0.7-2.3-1s-0.8-0.4-0.6-1.2c0.3-1.4,0.7-2.7,1.1-4.1
							c0.2-0.4,0.1-0.8-0.1-1.2c1.3-3.6,2.6-7.1,3.8-10.7C49.8,1.9,50,1.8,50.4,2c1,0.4,2,0.8,3,1.1c0.5,0.2,0.5,0.4,0.4,0.8
							c-0.6,1.6-1.2,3.3-1.7,4.9c0,0.1,0,0.1,0,0.2c0.1,0.1,0.1,0,0.2,0c0.8-1.6,1.6-3.1,2.4-4.7c0.2-0.4,0.3-0.5,0.8-0.3
							c1,0.5,2,1,3,1.5c0.4,0.2,0.4,0.3,0.2,0.7c-0.8,1.5-1.6,3.1-2.3,4.7c0,0.2-0.1,0.3-0.2,0.4h0.1c0,0,0.1-0.2,0.2-0.3
							c1-1.4,1.9-2.8,2.8-4.3c0.3-0.4,0.5-0.5,1-0.2c6.7,4.2,12.1,10,15.7,17c0.7,1.2,0.7,1.2-0.6,1.9l-3.8,2.1
							c-0.1,0.1-0.2,0.2-0.3,0.2c0.1,0,0.3,0,0.4-0.1c1.6-0.6,3.2-1.2,4.8-1.9c0.4-0.2,0.6-0.1,0.7,0.3c0.4,1,0.8,2.1,1.2,3.1
							c0.2,0.4,0.1,0.5-0.3,0.6c-1.8,0.7-3.7,1.4-5.5,2.2c0.3,0.1,0.4,0,0.7,0c1.7-0.4,3.3-0.8,5-1.3c0.5-0.1,0.6-0.1,0.8,0.4
							c0.7,2.8,1.3,5.6,1.6,8.4c0,0.3,0,0.5-0.3,0.5"/>
					</g>
					<g id="g40">
						<path id="path42" class="st2" d="M20.1,24.7l0.5,0.6c-0.3-0.1-0.5-0.2-0.7-0.5L20.1,24.7"/>
					</g>
					<g id="g44">
						<path id="path46" class="st3" d="M71.6,27.6c-0.2,0.2-0.5,0.2-0.8,0.2l0.6-0.3L71.6,27.6"/>
					</g>
					<g id="g48">
						<path id="path50" class="st1" d="M116,32c-0.7-2.5-2-4.5-4.7-5.3c-1.5-0.4-3-0.4-4.5-0.3c-0.4,0-0.5,0.2-0.5,0.6
							c0,2.3,0,4.7,0,7s0,4.7,0,7c0,0.5,0.1,0.7,0.6,0.7c0.9,0,1.9,0,2.8,0c1.8,0,3.4-0.7,4.6-2.1C116.1,37.5,116.7,34.7,116,32
							 M124.5,27.5c3.6,4.5,3,11-1.5,14.6c-0.2,0.2-0.5,0.4-0.8,0.6c-3,1.9-6.5,2.9-10,2.8c-1.7,0-3.5,0-5.2,0
							c-0.6,0-0.8,0.1-0.8,0.7c0,5.5,0,10.9,0,16.4c0,0.6-0.2,0.7-0.7,0.7c-2.9,0-5.9,0-8.8,0c-0.6,0-0.7-0.1-0.7-0.7
							c0-6.5,0-13.1,0-19.7s0-13.1,0-19.7c0-0.6,0.2-0.7,0.7-0.7c5.8,0,11.6-0.2,17.3,0.1C118.1,22.7,121.9,24.4,124.5,27.5
							 M268,31.7c-0.7-2.8-2.4-4.6-5.3-5.2c-1.5-0.2-3.1-0.2-4.6-0.1c-0.4,0-0.5,0.2-0.5,0.6c0,2.3,0,4.7,0,7s0,4.8,0,7.1
							c0,0.2-0.1,0.5,0.3,0.5c1.5,0.1,3,0,4.5-0.2C266.6,40.3,269.1,36,268,31.7 M283.6,62.7l0.5,0.7h-0.6c-3.3,0-6.6,0-9.9,0
							c-0.4,0-0.7-0.2-0.9-0.5c-4-5.5-8.1-11-12.2-16.5c-0.3-0.6-1-0.9-1.7-0.8c-1.2,0.1-1.2,0-1.2,1.2c0,5.3,0,10.6,0,15.9
							c0,0.7-0.2,0.8-0.8,0.8c-2.9,0-5.8,0-8.7,0c-0.5,0-0.6-0.1-0.6-0.6c0-13.3,0-26.6,0-39.9c0-0.5,0.1-0.6,0.6-0.6
							c5.7,0,11.5,0,17.2,0.2c2.9,0,5.8,0.7,8.4,2.1c3.3,2,5.3,4.9,5.2,8.8c0,2.8-1.3,5.4-3.5,7.1c-1.6,1.2-3.4,2.2-5.2,3
							c-0.5,0.2-0.5,0.4-0.2,0.8C274.5,50.5,279,56.6,283.6,62.7 M187,31.7c-0.5-2.6-2.6-4.6-5.2-5.1c-1.5-0.2-3-0.2-4.4-0.1
							c-0.5,0-0.7,0.1-0.7,0.7c0,2.3,0,4.6,0,6.9s0,4.7,0,7.1c0,0.2-0.2,0.5,0.3,0.5c1.5,0.1,3,0,4.5-0.2
							C185.7,40.3,188.2,35.9,187,31.7 M188.6,43.9L203,63.3c-0.2,0.1-0.4,0.1-0.7,0.1c-3.2,0-6.5,0-9.7,0c-0.4,0-0.8-0.2-1-0.5
							c-4-5.5-8.1-11-12.1-16.5c-0.4-0.6-1-0.9-1.7-0.9c-1.2,0.1-1.2,0-1.2,1.1c0,5.3,0,10.7,0,16c0,0.6-0.1,0.8-0.7,0.7
							c-2.9,0-5.8,0-8.7,0c-0.5,0-0.6-0.1-0.6-0.6c0-13.3,0-26.5,0-39.8c0-0.5,0.1-0.6,0.6-0.6c5.7,0,11.4,0,17.1,0.2
							c2.8,0,5.5,0.6,8,1.9c2.9,1.6,5,3.9,5.5,7.4c0.7,3.4-0.7,6.9-3.5,8.9c-1.5,1.1-3.2,2.1-4.9,2.9L188.6,43.9 M297.3,22.5
							c-2.9,0-5.8,0-8.7,0c-0.6,0-0.7,0.1-0.7,0.7c0,6.6,0,13.2,0,19.8s0,13.2,0,19.8c0,0.5,0.1,0.7,0.6,0.7c2.9,0,5.8,0,8.7,0
							c0.5,0,0.7-0.1,0.7-0.7c0-13.2,0-26.4,0-39.6C298,22.6,297.8,22.5,297.3,22.5 M160.6,59.2c-6.4,0-12.8,0-19.1,0
							c-0.4,0-0.7,0-0.7-0.6c0-5,0-10.1,0-15.1c0-0.5,0.1-0.5,0.6-0.5c1.7,0,3.4,0,5.1,0c3.6,0,7.1,0,10.7,0c0.6,0,0.7-0.2,0.7-0.7
							c-0.1-0.7-0.1-1.5,0-2.2c0.1-0.6-0.2-0.7-0.8-0.7c-5.2,0-10.5,0-15.7,0c-0.5,0-0.6-0.1-0.6-0.6c0-4,0-8.1,0-12.1
							c0-0.5,0.1-0.7,0.6-0.7c5.6,0,11.1,0,16.7,0c0.9,0,1.8,0,2.7,0c0.4,0,0.5-0.1,0.5-0.5c0-0.8,0-1.5,0-2.3
							c0-0.6-0.1-0.8-0.8-0.8c-9.7,0-19.4,0-29.1,0c-0.6,0-0.8,0.1-0.8,0.8c0,6.6,0,13.1,0,19.7s0,13.2,0,19.8
							c0,0.6,0.1,0.8,0.7,0.8c3,0,6.1,0,9.1,0c6.7,0,13.4,0,20.1,0c0.5,0,0.7-0.1,0.7-0.7c0-1,0-1.9,0-2.9
							C161.3,59.2,161.1,59.1,160.6,59.2 M242.3,23.1c0,4.5,0,9,0,13.5l0,0c0,4.2,0.1,8.4,0,12.6c-0.1,6.9-3.8,12-10.4,14
							c-6.2,1.9-12.5,1.9-18.6-0.8c-5.2-2.2-8.6-7.3-8.5-13c-0.2-8.8-0.1-17.5-0.1-26.3c0-0.5,0.1-0.5,0.6-0.5c3,0,6,0,8.9,0
							c0.6,0,0.7,0.1,0.7,0.7c0,8.4,0,16.7,0,25.1c-0.1,2.8,0.7,5.6,2.4,8c2.1,3.1,5.8,4.7,9.5,4c3.8-0.4,7.1-3.1,8.2-6.8
							c0.6-1.7,0.8-3.4,0.8-5.2c0-8.4,0-16.8,0-25.1c0-0.6,0.1-0.8,0.8-0.8c1.6,0,3.3,0,4.9,0C242.2,22.4,242.3,22.6,242.3,23.1"/>
					</g>
					<g id="g52">
						<path id="path54" class="st4" d="M33.3,10.5c0-0.4,0-0.8-0.1-1.2s0.2-0.7,0.7-0.6c-0.4,0.1-0.6,0.4-0.6,0.7c0,0,0,0,0,0.1
							C33.4,9.8,33.4,10.2,33.3,10.5"/>
					</g>
					<g id="g56">
						<path id="path58" class="st4" d="M33.6,16.7c-0.1-0.7-0.2-1.3-0.1-2C33.6,15.3,33.7,16,33.6,16.7"/>
					</g>
					<g id="g60">
						<path id="path62" class="st5" d="M34.5,6.8c0,0.2,0,0.5,0,0.7C34.2,7.1,34.2,7.1,34.5,6.8"/>
					</g>
					<g id="g64">
						<path id="path66" class="st6" d="M14.1,31.3c-1.1-0.5-2.1-1-3.1-1.4c-0.3-0.1-0.4-0.1-0.6,0.2c-0.3,0.8-0.7,1.6-1.1,2.3
							c-0.2,0.4,0,0.6,0.4,0.8c0.6,0.2,1.2,0.5,1.8,0.8c0.3,0.1,0.6,0.1,0.7,0.5c0.6-0.9,1.4-1.7,2.1-2.5
							C14.4,31.7,14.5,31.6,14.1,31.3 M28.7,67.8c0.1-0.3-0.2-0.2-0.3-0.2c-1-0.1-1.9-0.3-2.9-0.5c-0.3-0.1-0.4,0.1-0.5,0.3
							c-0.4,1.1-0.9,2.2-1.3,3.3c-0.1,0.3-0.1,0.5,0.3,0.6c0.8,0.3,1.6,0.6,2.4,1c0.4,0.2,0.5,0.1,0.7-0.3c0.5-1.3,1-2.6,1.5-3.8
							L28.7,67.8 M29.4,67.6c-0.3,0-0.4,0.2-0.5,0.4c-0.6,2.3-1.1,4.6-1.7,6.9c-0.1,0.3,0,0.5,0.3,0.6c0.9,0.2,1.7,0.4,2.6,0.6
							c0.3,0.1,0.5,0,0.5-0.3c0.2-0.9,0.4-1.8,0.6-2.6c0.4-1.7,0.8-3.3,1.2-5c0,0-0.1-0.3,0.1-0.1c0,0,0,0.1,0,0.1
							c0.1-0.2,0.1-0.4,0.1-0.6C31.6,67.5,30.5,67.8,29.4,67.6 M47.9,68.7c-0.5-1.2-0.9-2.4-1.3-3.6c-0.3-0.7-0.7-1.5-1.1-2.2
							c-0.2-0.3-0.3-0.4-0.6-0.2c-1.7,1.3-3.5,2.4-5.5,3.3c0.5,0.4,0.3,1,0.5,1.5c0.1,0.3,0,0.7,0.2,0.9c0,0.3,0.1,0.5,0.2,0.8
							c0.6,2.9,1.2,5.8,1.8,8.7c0.1,0.4,0.2,0.6,0.6,0.4c0.8-0.2,1.6-0.4,2.5-0.5c0.4-0.1,0.5-0.3,0.4-0.7c-0.3-1.1-0.5-2.3-0.7-3.4
							c-0.3-1.4-0.3-1.4,1-1.8c0.8-0.3,1.7-0.6,2.5-0.9c0.3-0.1,0.4-0.3,0.3-0.6C48.4,69.9,48.1,69.3,47.9,68.7 M50.8,37.3
							c0.2,0.5,0.4,0.5,0.9,0.4c1.8-0.5,3.7-1,5.5-1.6c0.9-0.2,1.9-0.5,2.8-0.8c0.2-0.1,0.4-0.2,0.6-0.3c1.6-0.7,3.2-1.5,4.8-2.2
							c0.4-0.2,0.5-0.4,0.3-0.8c-0.9-2.1-1.9-4-3.1-5.9c-0.2-0.3-0.2-0.5,0.1-0.7c0.8-0.5,1.5-1.1,2.2-1.7c0.4-0.3,0.7-0.5,0.2-1
							c-0.2-0.3-0.5-0.5-0.6-0.9c-0.2-0.4-0.4-0.4-0.8-0.1c-1.1,0.9-2.3,1.8-3.5,2.6l-11.9,9C49.2,34.5,50.1,35.9,50.8,37.3
							 M31.3,23.9l-3.8-10.5c-0.1-0.3-0.1-0.6-0.6-0.4c-1.4,0.6-2.8,1.2-4.2,1.7c-0.3,0.1-0.3,0.2-0.2,0.5c0.3,0.6,0.5,1.2,0.8,1.8
							c0.1,0.3,0.1,0.4-0.2,0.6c-0.7,0.4-1.4,0.8-2,1.1c-0.8,0.2-1.5,0.7-2.1,1.3c-0.3,0.3-0.6,0.6-1,0.8c-0.5,0.3-0.4,0.5-0.1,0.9
							c0.8,1,1.5,2,2.2,3c0.1,0.1,0,0.2,0.1,0.3c-0.1-0.1-0.2-0.2-0.3-0.2c-1.5-1.5-3.1-3-4.6-4.6c-0.4-0.4-0.6-0.4-0.9,0
							c-1.1,1.2-2.1,2.3-3.2,3.5c-0.6,0.6-1.1,1.2-1.6,1.9c-0.4,0.4-0.3,0.7,0.2,1c1.4,1,2.7,2,4,2.9c0.5,0.4,1,0.8,1.6,1.1
							c4.1-3.6,9.5-5.6,15-5.6C31.7,25,31.7,25,31.3,23.9 M69.4,55.2c-1.4-0.5-2.8-1.2-4.2-1.7c-1.3-0.5-1.3-0.5-0.8-1.8
							c0.2-0.5,0-0.7-0.4-0.8c-2-0.6-4-1.3-5.9-1.9c-0.4-0.1-0.5-0.2-0.4-0.6c0.2-0.9,0.3-1.9,0.3-2.8c0-1.9-0.2-3.8-0.4-5.8
							L52.6,41c-0.3,0.1-0.4,0.2-0.3,0.6c0.4,1.4,0.5,2.8,0.6,4.2c0.1,4.5-1.3,9-3.9,12.7c-0.4,0.5-1.1,0.9-1,1.6
							c0.2,0.7,0.6,1.3,1,1.8c0,0.1,0.1,0.1,0.1,0.2c0.6-0.3,1,0,1.3,0.4c1,1.3,2.1,2.5,3.2,3.7s0.7,1.2,2.1,0.1c0,0,0,0,0-0.1
							c0.5-0.8,1.1-1.4,1.9-2c0.3-0.4,0.6-0.7,0.9-1c0.5-0.4,0.3-0.7,0-1c-1.5-1.4-3-2.8-4.5-4.3c-0.3-0.3-0.3-0.5-0.1-0.8
							c0.4-0.5,0.7-0.9,1-1.4c0.2-0.4,0.4-0.4,0.8-0.2c1.4,0.8,2.8,1.5,4.3,2.2c0.5,0.3,1.1,0.8,1.6,0.7s0.7-1,0.9-1.5
							s0.4-0.5,0.8-0.3c1.6,0.7,3.2,1.3,4.7,2c0.5,0.2,0.7,0.2,0.9-0.3c0.3-0.8,0.6-1.5,0.9-2.2C69.9,55.5,69.8,55.4,69.4,55.2
							 M46.4,31.2c-2.4-2.2-5.3-3.9-8.5-5c-1.7-0.5-3.4-0.9-5.1-1c-0.6,0-1-0.2-0.9-0.9c0-0.5-0.1-1-0.2-1.5
							c-0.1-0.5,0.1-0.6,0.5-0.6c0.2,0,0.4-0.1,0.7-0.1c1-0.2,1-0.2,1-1.1c0-0.7-0.1-1.3-0.3-2c0.1-0.8-0.2-1.5-0.1-2.3
							c0.1-0.7,0-1.3-0.1-2c-0.2-1.4-0.2-2.7-0.2-4.1c0-0.3,0-0.7,0-1c0-0.6,0.2-1,0.8-1.1c1.4-0.2,2.8-0.3,4.2-0.2
							c0.2,0,0.5,0.1,0.7,0.2c0.9,0.1,1.8,0.2,2.8,0.3c0.5,0,0.8,0.1,0.6,0.8s-0.2,1.6-0.3,2.4c0,0.2,0,0.4,0.3,0.4
							c1.2,0.2,2.4,0.5,3.6,0.8c0,0,0.1-0.1,0.2-0.1c0.4,0.2,0.5,0.4,0.3,0.9c-0.4,1.5-0.8,3-1.2,4.5C45,19,45,19.2,45.5,19.3
							c1,0.3,1.9,0.7,2.8,1.1c0.3,0.2,0.5,0.1,0.7-0.2c0.8-1.3,1.6-2.6,2.4-4c0.2-0.4,0.4-0.4,0.8-0.2c0.7,0.4,1.3,0.9,2,1.3
							c0.5,0.2,0.5,0.4,0.2,0.9c-2,3.2-3.9,6.4-5.9,9.6C47.8,28.9,47.1,30.1,46.4,31.2"/>
					</g>
				</g>
			</g>
		</g>
	</g>
</g>
</svg>
